<svg width="127" height="59" viewBox="0 0 127 59" fill="none" xmlns="http://www.w3.org/2000/svg">
<path d="M122.981 19.1485C124.678 21.2522 125.873 23.4699 126.497 25.7701L126.015 25.9012C126.335 27.0814 126.5 28.2822 126.5 29.5C126.5 30.7178 126.335 31.9186 126.015 33.0988L126.497 33.2299C125.873 35.5301 124.678 37.7478 122.981 39.8515L122.591 39.5376C121.157 41.3156 119.35 43.0184 117.207 44.6238L117.507 45.0239C115.616 46.4403 113.475 47.7768 111.111 49.0201L110.879 48.5776C108.776 49.6837 106.493 50.7166 104.051 51.6662L104.232 52.1323C101.976 53.0095 99.5868 53.8153 97.0805 54.5422L96.9412 54.062C94.6102 54.738 92.1765 55.3457 89.6533 55.8787L89.7566 56.3679C87.3527 56.8758 84.8687 57.316 82.3157 57.6834L82.2445 57.1885C79.8153 57.5382 77.323 57.8217 74.7776 58.0344L74.8192 58.5327C72.352 58.7389 69.8352 58.8789 67.2777 58.9487L67.2641 58.4488C66.0188 58.4828 64.7637 58.5 63.5 58.5C62.2363 58.5 60.9812 58.4828 59.7359 58.4488L59.7223 58.9487C57.1648 58.8789 54.648 58.7389 52.1808 58.5327L52.2224 58.0344C49.6769 57.8217 47.1847 57.5382 44.7555 57.1885L44.6842 57.6834C42.1313 57.316 39.6473 56.8758 37.2434 56.3679L37.3467 55.8787C34.8235 55.3457 32.3898 54.738 30.0588 54.062L29.9195 54.5422C27.4132 53.8153 25.024 53.0095 22.7678 52.1323L22.949 51.6662C20.5069 50.7166 18.2242 49.6837 16.1213 48.5776L15.8886 49.0201C13.525 47.7768 11.3836 46.4403 9.49313 45.0239L9.79294 44.6237C7.65032 43.0184 5.84292 41.3156 4.4085 39.5375L4.01935 39.8515C2.32224 37.7478 1.12742 35.5301 0.502724 33.2299L0.985246 33.0988C0.664728 31.9186 0.5 30.7178 0.5 29.5C0.5 28.2822 0.664728 27.0814 0.985248 25.9012L0.502726 25.7701C1.12742 23.4699 2.32224 21.2522 4.01935 19.1485L4.4085 19.4624C5.84292 17.6844 7.65033 15.9816 9.79294 14.3762L9.49313 13.9761C11.3836 12.5597 13.525 11.2232 15.8886 9.9799L16.1213 10.4224C18.2242 9.31629 20.5069 8.28337 22.949 7.33375L22.7678 6.86774C25.024 5.99047 27.4132 5.18466 29.9195 4.45779L30.0588 4.938C32.3898 4.26196 34.8235 3.6543 37.3467 3.12126L37.2434 2.63206C39.6473 2.12424 42.1313 1.684 44.6843 1.31657L44.7555 1.81147C47.1847 1.46184 49.677 1.17835 52.2224 0.965572L52.1808 0.467309C54.6481 0.261073 57.1648 0.12105 59.7223 0.0513414L59.7359 0.551156C60.9812 0.517212 62.2363 0.5 63.5 0.5C64.7637 0.5 66.0188 0.517212 67.2641 0.551156L67.2777 0.0513414C69.8352 0.12105 72.352 0.261073 74.8192 0.467309L74.7776 0.965572C77.3231 1.17835 79.8153 1.46184 82.2445 1.81147L82.3158 1.31657C84.8687 1.684 87.3527 2.12424 89.7566 2.63206L89.6533 3.12126C92.1765 3.6543 94.6102 4.26196 96.9412 4.938L97.0805 4.45779C99.5868 5.18466 101.976 5.99048 104.232 6.86775L104.051 7.33376C106.493 8.28337 108.776 9.31629 110.879 10.4224L111.111 9.9799C113.475 11.2232 115.616 12.5597 117.507 13.9761L117.207 14.3762C119.35 15.9816 121.157 17.6844 122.591 19.4625L122.981 19.1485Z" stroke="#BF1E2E" stroke-dasharray="8 8"/>
</svg>
