<?xml version="1.0" encoding="UTF-8" standalone="no"?>
<svg
   style="fill:#ffffff"
   viewBox="0 0 46.325409 17.518719"
   x="0px"
   y="0px"
   version="1.1"
   id="svg6"
   sodipodi:docname="up-arrow.svg"
   width="46.325409"
   height="17.518719"
   inkscape:version="1.1 (c4e8f9e, 2021-05-24)"
   xmlns:inkscape="http://www.inkscape.org/namespaces/inkscape"
   xmlns:sodipodi="http://sodipodi.sourceforge.net/DTD/sodipodi-0.dtd"
   xmlns="http://www.w3.org/2000/svg"
   xmlns:svg="http://www.w3.org/2000/svg">
  <defs
     id="defs10" />
  <sodipodi:namedview
     id="namedview8"
     pagecolor="#505050"
     bordercolor="#ffffff"
     borderopacity="1"
     inkscape:pageshadow="0"
     inkscape:pageopacity="0"
     inkscape:pagecheckerboard="1"
     showgrid="false"
     inkscape:zoom="9.3666667"
     inkscape:cx="19.80427"
     inkscape:cy="14.733096"
     inkscape:window-width="1366"
     inkscape:window-height="707"
     inkscape:window-x="0"
     inkscape:window-y="27"
     inkscape:window-maximized="1"
     inkscape:current-layer="g4" />
  <g
     data-name="Glasses, Arrow Long Right"
     id="g4"
     transform="translate(2.5753336,-15.231289)">
    <path
       data-name="Compound Path"
       d="m 33.488049,32.75 a 0.86786677,0.74 0 0 1 -0.62158,-0.22 0.8795947,0.75 0 0 1 0,-1.06 l 7.881168,-6.72 H -1.6957389 a 0.8795947,0.75 0 0 1 0,-1.5 H 40.747637 l -7.881168,-6.72 a 0.8795947,0.75 0 1 1 1.24316,-1.06 l 9.382344,8 a 0.73885955,0.63 0 0 1 0.187646,0.24 0.85613884,0.73 0 0 1 0,0.58 0.73885955,0.63 0 0 1 -0.187646,0.24 l -9.382344,8 a 0.86786677,0.74 0 0 1 -0.62158,0.22 z"
       id="path2"
       style="stroke-width:1.08296" />
  </g>
</svg>
