<?xml version="1.0" encoding="UTF-8" standalone="no"?>
<svg
   width="256.00369"
   height="258.09637"
   viewBox="-1.5 0 256.00369 258.09637"
   version="1.1"
   preserveAspectRatio="xMidYMid"
   id="svg8"
   sodipodi:docname="whatsapp.svg"
   inkscape:version="1.1 (c4e8f9e, 2021-05-24)"
   xmlns:inkscape="http://www.inkscape.org/namespaces/inkscape"
   xmlns:sodipodi="http://sodipodi.sourceforge.net/DTD/sodipodi-0.dtd"
   xmlns="http://www.w3.org/2000/svg"
   xmlns:svg="http://www.w3.org/2000/svg">
  <defs
     id="defs12" />
  <sodipodi:namedview
     id="namedview10"
     pagecolor="#505050"
     bordercolor="#ffffff"
     borderopacity="1"
     inkscape:pageshadow="0"
     inkscape:pageopacity="0"
     inkscape:pagecheckerboard="1"
     showgrid="false"
     inkscape:zoom="2.1698842"
     inkscape:cx="127.88701"
     inkscape:cy="129.5"
     inkscape:window-width="1366"
     inkscape:window-height="707"
     inkscape:window-x="0"
     inkscape:window-y="27"
     inkscape:window-maximized="1"
     inkscape:current-layer="svg8" />
  <g
     id="g6"
     transform="translate(-1.5)">
    <path
       d="m 67.663105,221.82337 4.185346,2.09268 c 17.438945,10.46336 36.970559,15.34627 56.502179,15.34627 v 0 c 61.38509,0 111.60925,-50.22416 111.60925,-111.60925 0,-29.297423 -11.85849,-57.897292 -32.78522,-78.824025 -20.92673,-20.926734 -48.82904,-32.785216 -78.82403,-32.785216 -61.385083,0 -111.609243,50.22416 -110.911685,112.306801 0,20.92673 6.278019,41.15591 16.741386,58.59485 l 2.790231,4.18535 -11.160924,41.15591 z"
       fill="rgb(214, 96, 96)"
       id="path2" />
    <path
       d="M 219.03314,37.66812 C 195.31618,13.253598 162.53096,0 129.04819,0 57.897296,0 0.69755778,57.897296 1.3951156,128.35063 c 0,22.32185 6.27802,43.94614 16.7413864,63.47776 L 0,258.09638 67.663105,240.65743 c 18.834059,10.46337 39.760795,15.34628 60.687525,15.34628 v 0 c 70.45334,0 127.65308,-57.8973 127.65308,-128.35064 0,-34.180328 -13.2536,-66.267986 -36.97057,-89.98495 z m -89.98495,196.71129 v 0 c -18.83406,0 -37.668121,-4.8829 -53.71195,-14.64871 l -4.185347,-2.09267 -40.458351,10.46336 10.463367,-39.76079 -2.790231,-4.18535 C 7.6731356,134.62865 22.321849,69.05822 72.546009,38.365678 122.77017,7.6731356 187.64304,22.321849 218.33558,72.546009 c 30.69255,50.224161 16.04383,115.097031 -34.18033,145.789571 -16.04383,10.46337 -35.57544,16.04383 -55.10706,16.04383 z m 61.38508,-77.42891 -7.67313,-3.48779 c 0,0 -11.16093,-4.8829 -18.1365,-8.37069 -0.69756,0 -1.39512,-0.69756 -2.09268,-0.69756 -2.09267,0 -3.48779,0.69756 -4.8829,1.39512 v 0 c 0,0 -0.69756,0.69755 -10.46337,11.85848 -0.69756,1.39511 -2.09267,2.09267 -3.48779,2.09267 h -0.69756 c -0.69755,0 -2.09267,-0.69756 -2.79023,-1.39511 l -3.48779,-1.39512 v 0 c -7.67313,-3.48779 -14.64871,-7.67314 -20.22917,-13.2536 -1.39512,-1.39511 -3.48779,-2.79023 -4.8829,-4.18534 -4.88291,-4.88291 -9.76581,-10.46337 -13.253603,-16.74139 l -0.697558,-1.39512 c -0.697558,-0.69755 -0.697558,-1.39511 -1.395116,-2.79023 0,-1.39511 0,-2.79023 0.697558,-3.48779 0,0 2.790231,-3.48778 4.882909,-5.58046 1.39511,-1.39511 2.09267,-3.48779 3.48779,-4.8829 1.39511,-2.09268 2.09267,-4.882908 1.39511,-6.975581 C 106.02878,94.1703 97.658089,75.33624 95.565416,71.150893 94.1703,69.05822 92.775184,68.360662 90.682511,67.663105 h -2.092673 c -1.395116,0 -3.487789,0 -5.580462,0 -1.395116,0 -2.790232,0.697557 -4.185347,0.697557 l -0.697558,0.697558 c -1.395115,0.697558 -2.790231,2.092673 -4.185347,2.790231 -1.395115,1.395116 -2.092673,2.790231 -3.487788,4.185347 -4.882905,6.27802 -7.673136,13.951155 -7.673136,21.624291 v 0 c 0,5.580461 1.395116,11.160921 3.487789,16.043831 l 0.697558,2.09267 c 6.27802,13.2536 14.648713,25.11208 25.809637,35.57545 l 2.790232,2.79023 c 2.092673,2.09267 4.185346,3.48779 5.580464,5.58046 14.64871,12.55604 31.3901,21.62429 50.22416,26.5072 2.09267,0.69755 4.8829,0.69755 6.97558,1.39511 v 0 c 2.09267,0 4.8829,0 6.97557,0 3.48779,0 7.67314,-1.39511 10.46337,-2.79023 2.09267,-1.39511 3.48779,-1.39511 4.8829,-2.79023 l 1.39512,-1.39512 c 1.39512,-1.39511 2.79023,-2.09267 4.18535,-3.48778 1.39511,-1.39512 2.79023,-2.79024 3.48779,-4.18535 1.39511,-2.79023 2.09267,-6.27802 2.79023,-9.76581 0,-1.39512 0,-3.48779 0,-4.8829 0,0 -0.69756,-0.69756 -2.09268,-1.39512 z"
       fill="#ffffff"
       id="path4" />
  </g>
</svg>
